<svg width="30" height="30" viewBox="0 0 30 30" fill="none" xmlns="http://www.w3.org/2000/svg">
                  <path d="M16.7339 14.9984L25.5229 4.52187C25.6702 4.34776 25.5464 4.08325 25.3187 4.08325H22.6468C22.4894 4.08325 22.3388 4.15356 22.235 4.2741L14.9861 12.9158L7.73721 4.2741C7.63676 4.15356 7.48609 4.08325 7.32538 4.08325H4.6535C4.42582 4.08325 4.30194 4.34776 4.44926 4.52187L13.2383 14.9984L4.44926 25.475C4.41626 25.5138 4.39509 25.5613 4.38826 25.6117C4.38143 25.6622 4.38923 25.7136 4.41073 25.7598C4.43224 25.806 4.46654 25.845 4.50958 25.8723C4.55261 25.8995 4.60256 25.9139 4.6535 25.9136H7.32538C7.48274 25.9136 7.63341 25.8433 7.73721 25.7228L14.9861 17.081L22.235 25.7228C22.3354 25.8433 22.4861 25.9136 22.6468 25.9136H25.3187C25.5464 25.9136 25.6702 25.6491 25.5229 25.475L16.7339 14.9984Z" fill="white"/>
                  </svg>