<svg class="right-arrow" width="18" height="18" viewBox="0 0 18 18" fill="none" xmlns="http://www.w3.org/2000/svg">
<g clip-path="url(#clip0_11_3215)">
<path fill-rule="evenodd" clip-rule="evenodd" d="M11.7803 9.53032C11.9209 9.38968 11.9999 9.19895 11.9999 9.00007C11.9999 8.8012 11.9209 8.61047 11.7803 8.46982L7.53751 4.22707C7.46833 4.15544 7.38557 4.0983 7.29407 4.059C7.20256 4.01969 7.10415 3.999 7.00456 3.99814C6.90498 3.99727 6.80622 4.01625 6.71405 4.05396C6.62188 4.09167 6.53814 4.14736 6.46772 4.21778C6.3973 4.2882 6.34161 4.37194 6.3039 4.46411C6.26619 4.55628 6.24721 4.65504 6.24808 4.75463C6.24894 4.85421 6.26963 4.95262 6.30894 5.04413C6.34824 5.13563 6.40538 5.21839 6.47701 5.28757L10.1895 9.00007L6.47701 12.7126C6.34039 12.854 6.2648 13.0435 6.26651 13.2401C6.26822 13.4368 6.34709 13.6249 6.48615 13.7639C6.6252 13.903 6.81331 13.9819 7.00996 13.9836C7.20661 13.9853 7.39606 13.9097 7.53751 13.7731L11.7803 9.53032Z" fill="#272727"/>
</g>
<defs>
<clipPath id="clip0_11_3215">
<rect width="18" height="18" fill="white" transform="matrix(0 1 1 0 0 0)"/>
</clipPath>
</defs>
</svg>