<svg width="7" height="6" viewBox="0 0 7 6" fill="none" xmlns="http://www.w3.org/2000/svg">
<path d="M1 2.7C0.834315 2.7 0.7 2.83431 0.7 3C0.7 3.16569 0.834315 3.3 1 3.3L1 2.7ZM6.21213 3.21213C6.32929 3.09497 6.32929 2.90502 6.21213 2.78787L4.30294 0.878679C4.18579 0.761522 3.99584 0.761522 3.87868 0.878679C3.76152 0.995837 3.76152 1.18579 3.87868 1.30294L5.57574 3L3.87868 4.69706C3.76152 4.81421 3.76152 5.00416 3.87868 5.12132C3.99584 5.23848 4.18579 5.23848 4.30294 5.12132L6.21213 3.21213ZM1 3.3L6 3.3L6 2.7L1 2.7L1 3.3Z" fill="#101010"/>
</svg>