<svg width="32" height="32" viewBox="0 0 32 32" fill="none" xmlns="http://www.w3.org/2000/svg">
<rect width="32" height="32" rx="16" fill="#F7F7F7"/>
<path d="M16 7C14.22 7 12.4799 7.52784 10.9999 8.51677C9.51983 9.50571 8.36628 10.9113 7.68509 12.5558C7.0039 14.2004 6.82567 16.01 7.17294 17.7558C7.5202 19.5016 8.37737 21.1053 9.63604 22.364C10.8947 23.6226 12.4984 24.4798 14.2442 24.8271C15.99 25.1743 17.7996 24.9961 19.4442 24.3149C21.0887 23.6337 22.4943 22.4802 23.4832 21.0001C24.4722 19.5201 25 17.78 25 16C24.9975 13.6138 24.0485 11.3261 22.3612 9.63882C20.6739 7.95154 18.3862 7.00252 16 7ZM16.6923 23.5834V18.0769H18.7692C18.9528 18.0769 19.1289 18.004 19.2588 17.8741C19.3886 17.7443 19.4615 17.5682 19.4615 17.3846C19.4615 17.201 19.3886 17.0249 19.2588 16.8951C19.1289 16.7652 18.9528 16.6923 18.7692 16.6923H16.6923V14.6154C16.6923 14.2482 16.8382 13.896 17.0979 13.6363C17.3575 13.3766 17.7097 13.2308 18.0769 13.2308H19.4615C19.6452 13.2308 19.8212 13.1578 19.9511 13.028C20.0809 12.8982 20.1538 12.7221 20.1538 12.5385C20.1538 12.3548 20.0809 12.1788 19.9511 12.0489C19.8212 11.9191 19.6452 11.8462 19.4615 11.8462H18.0769C17.3425 11.8462 16.6381 12.1379 16.1188 12.6572C15.5995 13.1766 15.3077 13.8809 15.3077 14.6154V16.6923H13.2308C13.0472 16.6923 12.8711 16.7652 12.7412 16.8951C12.6114 17.0249 12.5385 17.201 12.5385 17.3846C12.5385 17.5682 12.6114 17.7443 12.7412 17.8741C12.8711 18.004 13.0472 18.0769 13.2308 18.0769H15.3077V23.5834C13.3561 23.4052 11.5483 22.4815 10.2603 21.0045C8.97231 19.5274 8.30334 17.6107 8.39251 15.653C8.48168 13.6953 9.32213 11.8473 10.739 10.4935C12.156 9.13963 14.0403 8.38413 16 8.38413C17.9597 8.38413 19.844 9.13963 21.261 10.4935C22.6779 11.8473 23.5183 13.6953 23.6075 15.653C23.6967 17.6107 23.0277 19.5274 21.7397 21.0045C20.4517 22.4815 18.6439 23.4052 16.6923 23.5834Z" fill="#272727"/>
</svg>