<svg xmlns="http://www.w3.org/2000/svg" width="12" height="13" viewBox="0 0 11 12" fill="none">
    <path d="M5.04739 0.964187C5.22735 0.58081 5.77265 0.58081 5.95261 0.964188L7.24075 3.70828C7.31154 3.85907 7.45277 3.96471 7.61741 3.99001L10.5389 4.43903C10.941 4.50083 11.1049 4.99143 10.8207 5.28253L8.67637 7.47867C8.56546 7.59227 8.51508 7.75178 8.54064 7.90847L9.04222 10.9836C9.10941 11.3956 8.67206 11.7036 8.30678 11.5016L5.74196 10.0833C5.5914 10.0001 5.4086 10.0001 5.25804 10.0833L2.69322 11.5016C2.32794 11.7036 1.89059 11.3956 1.95778 10.9836L2.45936 7.90847C2.48492 7.75178 2.43454 7.59227 2.32363 7.47867L0.179347 5.28253C-0.104879 4.99143 0.0590191 4.50083 0.461143 4.43903L3.38259 3.99001C3.54723 3.96471 3.68846 3.85907 3.75925 3.70828L5.04739 0.964187Z" fill="#FFAA52"/>
  </svg>