<svg width="15" height="16" viewBox="0 0 15 16" fill="none" xmlns="http://www.w3.org/2000/svg">
        <path d="M5.12292 4.39376C5.26072 4.39745 5.41349 4.4049 5.55885 4.72755C5.65523 4.94233 5.8176 5.33775 5.94986 5.65985C6.05278 5.9105 6.13748 6.11675 6.15867 6.15897C6.2071 6.25537 6.23691 6.36661 6.17358 6.49638C6.16611 6.51169 6.15906 6.52633 6.15226 6.54042C6.10146 6.64586 6.0653 6.7209 5.97986 6.81902C5.94473 6.85935 5.90813 6.90357 5.87167 6.94763C5.80755 7.02512 5.74383 7.10211 5.68922 7.1565C5.59237 7.25284 5.49173 7.35676 5.6035 7.54957C5.71533 7.74238 6.10653 8.37652 6.68403 8.88828C7.30489 9.44102 7.84477 9.67395 8.11767 9.7917C8.17066 9.81456 8.21358 9.83308 8.24507 9.84876C8.43885 9.94516 8.55433 9.93032 8.66609 9.80055C8.77792 9.67072 9.15044 9.23684 9.28089 9.04403C9.40756 8.85122 9.53794 8.88089 9.71681 8.94762C9.89562 9.01435 10.8494 9.4816 11.0431 9.57801C11.0814 9.59707 11.1172 9.61425 11.1504 9.63017C11.2852 9.69481 11.3769 9.73875 11.4157 9.80425C11.4641 9.88581 11.4641 10.2715 11.304 10.7239C11.1401 11.1763 10.3502 11.6102 9.99248 11.6436C9.95861 11.6468 9.92491 11.6508 9.89023 11.655C9.56245 11.6947 9.14634 11.745 7.66387 11.1615C5.83715 10.4431 4.63131 8.66086 4.38752 8.30053C4.36827 8.27208 4.35502 8.25249 4.34793 8.24299L4.34381 8.23747C4.23289 8.08906 3.55433 7.18109 3.55433 6.24429C3.55433 5.348 3.99585 4.88137 4.19724 4.66853C4.21 4.65504 4.2218 4.64257 4.23246 4.63108C4.41127 4.43827 4.61995 4.39007 4.75033 4.39007C4.88078 4.39007 5.01116 4.39007 5.12292 4.39376Z" fill="#4A4A4A"/><path fill-rule="evenodd" clip-rule="evenodd" d="M0.0753723 15.0598C0.0137505 15.2835 0.217474 15.4899 0.441954 15.4313L3.91205 14.5249C5.00742 15.1182 6.24066 15.4334 7.49629 15.4334H7.5C11.6319 15.4334 15 12.0848 15 7.9686C15 5.97352 14.2212 4.09708 12.8055 2.68788C11.3897 1.27875 9.50816 0.5 7.49994 0.5C3.36814 0.5 4.77741e-07 3.84862 4.77741e-07 7.9649C-0.000469058 9.27439 0.345173 10.561 1.00223 11.6954L0.0753723 15.0598ZM2.0914 11.9955C2.17185 11.7035 2.13166 11.3914 1.97985 11.1292C1.42239 10.1667 1.12935 9.07517 1.12975 7.9649C1.12975 4.47791 3.98671 1.62975 7.49994 1.62975C9.20955 1.62975 10.8045 2.29027 12.0085 3.48861C13.2111 4.68562 13.8702 6.27386 13.8702 7.9686C13.8702 11.4555 11.0133 14.3037 7.5 14.3037H7.49629C6.42941 14.3037 5.38102 14.0358 4.45013 13.5315C4.19818 13.3951 3.90378 13.3594 3.62654 13.4318L1.54599 13.9753L2.0914 11.9955Z" fill="#4A4A4A"/>
    </svg>