<svg width="32" height="32" viewBox="0 0 32 32" fill="none" xmlns="http://www.w3.org/2000/svg">
<rect width="32" height="32" rx="16" fill="#F7F7F7"/>
<path d="M16 12.3077C15.2697 12.3077 14.5559 12.5242 13.9487 12.93C13.3415 13.3357 12.8682 13.9123 12.5888 14.587C12.3093 15.2617 12.2362 16.0041 12.3786 16.7203C12.5211 17.4366 12.8728 18.0945 13.3891 18.6109C13.9055 19.1272 14.5634 19.4789 15.2797 19.6214C15.9959 19.7638 16.7383 19.6907 17.413 19.4112C18.0877 19.1318 18.6643 18.6585 19.07 18.0513C19.4758 17.4441 19.6923 16.7303 19.6923 16C19.6913 15.0211 19.302 14.0825 18.6097 13.3903C17.9175 12.698 16.9789 12.3087 16 12.3077ZM16 18.4615C15.5132 18.4615 15.0372 18.3172 14.6324 18.0467C14.2276 17.7762 13.9121 17.3918 13.7258 16.942C13.5395 16.4922 13.4908 15.9973 13.5858 15.5198C13.6807 15.0423 13.9152 14.6037 14.2594 14.2594C14.6037 13.9152 15.0423 13.6807 15.5198 13.5858C15.9973 13.4908 16.4922 13.5395 16.942 13.7258C17.3918 13.9121 17.7762 14.2276 18.0467 14.6324C18.3172 15.0372 18.4615 15.5132 18.4615 16C18.4615 16.6528 18.2022 17.2789 17.7406 17.7406C17.2789 18.2022 16.6528 18.4615 16 18.4615ZM19.6923 8H12.3077C11.1656 8.00122 10.0706 8.45546 9.26304 9.26304C8.45546 10.0706 8.00122 11.1656 8 12.3077V19.6923C8.00122 20.8344 8.45546 21.9294 9.26304 22.737C10.0706 23.5445 11.1656 23.9988 12.3077 24H19.6923C20.8344 23.9988 21.9294 23.5445 22.737 22.737C23.5445 21.9294 23.9988 20.8344 24 19.6923V12.3077C23.9988 11.1656 23.5445 10.0706 22.737 9.26304C21.9294 8.45546 20.8344 8.00122 19.6923 8ZM22.7692 19.6923C22.7692 20.5084 22.4451 21.291 21.868 21.868C21.291 22.4451 20.5084 22.7692 19.6923 22.7692H12.3077C11.4916 22.7692 10.709 22.4451 10.132 21.868C9.55494 21.291 9.23077 20.5084 9.23077 19.6923V12.3077C9.23077 11.4916 9.55494 10.709 10.132 10.132C10.709 9.55494 11.4916 9.23077 12.3077 9.23077H19.6923C20.5084 9.23077 21.291 9.55494 21.868 10.132C22.4451 10.709 22.7692 11.4916 22.7692 12.3077V19.6923ZM20.9231 12C20.9231 12.1826 20.8689 12.361 20.7675 12.5128C20.6661 12.6646 20.5219 12.7829 20.3532 12.8528C20.1846 12.9227 19.999 12.941 19.8199 12.9053C19.6409 12.8697 19.4764 12.7818 19.3473 12.6527C19.2182 12.5236 19.1303 12.3591 19.0947 12.1801C19.059 12.001 19.0773 11.8154 19.1472 11.6468C19.2171 11.4781 19.3354 11.3339 19.4872 11.2325C19.639 11.1311 19.8174 11.0769 20 11.0769C20.2448 11.0769 20.4796 11.1742 20.6527 11.3473C20.8258 11.5204 20.9231 11.7552 20.9231 12Z" fill="#272727"/>
</svg>