<svg width="24" height="24" viewBox="0 0 24 24" fill="none" xmlns="http://www.w3.org/2000/svg">
<path d="M16.9062 5.54267L5.51766 17.4822C5.38037 17.6261 5.30588 17.8187 5.31057 18.0176C5.31527 18.2164 5.39877 18.4053 5.54271 18.5426C5.68664 18.6799 5.87922 18.7543 6.07808 18.7496C6.27693 18.7449 6.46578 18.6614 6.60307 18.5175L17.9916 6.57799C18.1289 6.43406 18.2033 6.24148 18.1986 6.04262C18.194 5.84376 18.1104 5.65492 17.9665 5.51763C17.8226 5.38033 17.63 5.30584 17.4311 5.31054C17.2323 5.31524 17.0434 5.39874 16.9062 5.54267Z" fill="#272727"/>
<path d="M17.1992 18.4494L5.72295 6.59419C5.5846 6.45127 5.50869 6.25925 5.51192 6.06036C5.51516 5.86147 5.59726 5.67202 5.74018 5.53367C5.8831 5.39532 6.07512 5.31941 6.27401 5.32264C6.47289 5.32587 6.66235 5.40798 6.8007 5.55089L18.2769 17.4061C18.4153 17.549 18.4912 17.7411 18.488 17.9399C18.4847 18.1388 18.4026 18.3283 18.2597 18.4666C18.1168 18.605 17.9248 18.6809 17.7259 18.6777C17.527 18.6744 17.3375 18.5923 17.1992 18.4494Z" fill="#272727"/>
</svg>