<svg width="25" height="25" viewBox="0 0 25 25" fill="none" xmlns="http://www.w3.org/2000/svg">
  <path d="M9.57788 2.90023L9.57725 3.40023C9.585 3.40024 9.59278 3.40201 9.60002 3.40555C9.60005 3.40557 9.60008 3.40558 9.60011 3.4056L11.5555 4.36885C11.5555 4.36886 11.5555 4.36887 11.5555 4.36887C12.1547 4.66408 12.8454 4.66407 13.4446 4.36887C13.4446 4.36887 13.4446 4.36886 13.4446 4.36886L15.4003 3.40541L15.4009 3.40514C15.4133 3.39902 15.4243 3.39884 15.4346 3.40219C15.4448 3.40553 15.4553 3.41279 15.4632 3.42778C15.4632 3.4278 15.4632 3.42782 15.4632 3.42784C15.4633 3.42786 15.4633 3.42788 15.4633 3.4279L16.4826 5.36331L16.4827 5.36338C16.7938 5.95393 17.3511 6.3627 18.0081 6.47877L18.0082 6.47878L20.1537 6.85747L20.1554 6.85777C20.1665 6.85969 20.1773 6.86604 20.185 6.87661C20.1927 6.88728 20.1962 6.90112 20.1942 6.91506L20.194 6.91666L19.8901 9.0873C19.8901 9.08732 19.8901 9.08734 19.8901 9.08736C19.7976 9.74746 20.0098 10.4051 20.471 10.8855C20.471 10.8855 20.4711 10.8856 20.4711 10.8856L21.9845 12.4623L21.9854 12.4632C21.9944 12.4726 22 12.4858 22 12.5002C22 12.5122 21.9961 12.5234 21.9895 12.5323L21.984 12.538L20.4704 14.1148L20.4702 14.115C20.0091 14.596 19.7975 15.253 19.89 15.9129C19.89 15.913 19.89 15.913 19.89 15.913L20.1939 18.0836L20.1941 18.0851C20.1961 18.0992 20.1925 18.1132 20.1847 18.124C20.177 18.1347 20.166 18.1411 20.1548 18.143L20.153 18.1434L18.0083 18.522C17.3579 18.6364 16.79 19.0535 16.4821 19.6373L16.482 19.6376L15.4631 21.5725L15.4624 21.5739C15.4561 21.5859 15.4459 21.5941 15.4348 21.5978C15.4238 21.6014 15.4118 21.6006 15.4012 21.5953L15.4002 21.5948L13.4445 20.6314C12.8453 20.3362 12.1546 20.3362 11.5554 20.6314L9.59969 21.5948L9.59868 21.5954C9.58806 21.6006 9.57613 21.6014 9.56513 21.5978C9.55406 21.5942 9.54386 21.586 9.53757 21.574L9.53679 21.5725L8.51737 19.637L8.51733 19.6369C8.20617 19.0463 7.64891 18.6376 6.99192 18.5215L6.99184 18.5215L4.84632 18.1428L4.84435 18.1425C4.8333 18.1405 4.82256 18.1342 4.81497 18.1237C4.80729 18.1131 4.80373 18.0993 4.80573 18.0854L4.80598 18.0836L5.10988 15.913C5.10989 15.9129 5.10989 15.9129 5.10989 15.9129C5.20238 15.2528 4.99023 14.5951 4.52898 14.1147C4.52897 14.1147 4.52895 14.1147 4.52894 14.1147L3.01538 12.5379L3.01451 12.537C3.00554 12.5277 2.99999 12.5146 3 12.5004C3.00001 12.4861 3.00558 12.473 3.01456 12.4637L3.01592 12.4623L4.52957 10.8855L4.53003 10.885C4.99017 10.4044 5.20248 9.74762 5.10997 9.08733C5.10997 9.0873 5.10996 9.08728 5.10996 9.08726L4.80607 6.91662L4.80586 6.91516C4.80384 6.90108 4.80746 6.88709 4.81527 6.87629C4.82299 6.86561 4.83392 6.85917 4.84518 6.85722L4.84518 6.85723L4.84696 6.85691L6.99163 6.47828C6.99172 6.47827 6.99181 6.47825 6.99189 6.47824C6.99191 6.47823 6.99192 6.47823 6.99194 6.47823C7.64199 6.36378 8.21004 5.94743 8.51796 5.36274L8.51798 5.36271L9.53685 3.42774L9.53686 3.42774L9.53798 3.42558C9.54225 3.41738 9.54843 3.41094 9.5555 3.40664C9.56253 3.40235 9.57032 3.40023 9.57805 3.40023L9.57788 2.90023ZM9.57788 2.90023C9.47826 2.90027 9.38056 2.92773 9.29534 2.97965C9.21013 3.03157 9.14065 3.10597 9.09444 3.19478M9.57788 2.90023C9.66204 2.90034 9.74507 2.91971 9.82069 2.95688L9.09444 3.19478M9.09444 3.19478L8.07556 5.12976L9.09444 3.19478ZM15.1794 2.95688L13.2236 3.92034L15.1794 2.95688ZM15.1794 2.95688C15.4457 2.82526 15.7657 2.92936 15.9056 3.19478L16.925 5.13031C17.1646 5.58506 17.5912 5.89738 18.0951 5.98639L15.1794 2.95688ZM9.75686 7.02865C8.26639 7.02865 7.06044 8.24704 7.06044 9.73926C7.06044 11.2315 8.2664 12.4499 9.75686 12.4499C11.2473 12.4499 12.4533 11.2315 12.4533 9.73926C12.4533 8.24704 11.2473 7.02865 9.75686 7.02865ZM9.20698 16.8668C9.4757 16.8668 9.74529 16.7632 9.94972 16.5574L16.5358 9.92879C16.9439 9.51803 16.9439 8.85361 16.5358 8.44285C16.1259 8.03031 15.4602 8.03031 15.0503 8.44285L8.46424 15.0715C8.05611 15.4822 8.05611 16.1466 8.46424 16.5574C8.66866 16.7632 8.93825 16.8668 9.20698 16.8668ZM12.5467 15.261C12.5467 16.7532 13.7527 17.9716 15.2431 17.9716C16.7336 17.9716 17.9396 16.7532 17.9396 15.261C17.9396 13.7688 16.7336 12.5504 15.2431 12.5504C13.7527 12.5504 12.5467 13.7688 12.5467 15.261Z" stroke="#272727"/>
  <path d="M10.6417 10.5853C11.0595 10.1473 11.0599 9.43771 10.6427 9.00031C10.2255 8.56292 9.54863 8.56337 9.13089 9.00132C8.71315 9.43928 8.71272 10.1489 9.12993 10.5863C9.54713 11.0237 10.224 11.0232 10.6417 10.5853Z" fill="#272727"/>
  <path d="M15.095 16.19C15.6998 16.19 16.19 15.6998 16.19 15.095C16.19 14.4902 15.6998 14 15.095 14C14.4902 14 14 14.4902 14 15.095C14 15.6998 14.4902 16.19 15.095 16.19Z" fill="#272727"/>
</svg>